<svg width="27" height="24" viewBox="0 0 27 24" fill="none" xmlns="http://www.w3.org/2000/svg">
<path d="M13.8887 3.95758H2C1.44771 3.95758 1 4.4053 1 4.95758V21.2221C1 21.7743 1.44772 22.2221 2 22.2221H18.1954C18.7477 22.2221 19.1954 21.7743 19.1954 21.2221V15.8123M20.5738 1.40751L9.17835 12.803C9.01512 12.9662 8.91339 13.1809 8.89042 13.4106L8.56546 16.6601C8.50247 17.29 9.0332 17.8192 9.6629 17.7544L12.7767 17.4339C13.0054 17.4103 13.2189 17.3087 13.3815 17.1462L25.0882 5.43944C25.4385 5.13434 25.7249 4.10996 24.0682 2.45329C21.9974 0.382457 20.9657 1.01567 20.5738 1.40751Z" stroke="#0D1117" stroke-width="2" stroke-linecap="round"/>
</svg>
