<svg width="67" height="67" viewBox="0 0 67 67" fill="none" xmlns="http://www.w3.org/2000/svg">
<rect width="66.0259" height="66.0218" rx="9" fill="#2541B2"/>
<path d="M45.4722 9.40356H38.0725C37.1821 9.40356 36.3422 9.81722 35.7993 10.5231L29.2853 18.9937C28.7425 19.6996 27.9026 20.1132 27.0121 20.1132H20.5537C18.9699 20.1132 17.686 21.3971 17.686 22.9809V28.4322C17.686 30.016 18.9699 31.2999 20.5537 31.2999H26.005C27.5888 31.2999 28.8726 30.016 28.8726 28.4322V23.4581C28.8726 21.8744 30.1565 20.5905 31.7403 20.5905H45.4722C47.056 20.5905 48.3398 19.3066 48.3398 17.7229V12.2712C48.3398 10.6875 47.056 9.40356 45.4722 9.40356ZM45.4722 28.9867H38.0725C37.1821 28.9867 36.3422 29.4004 35.7993 30.1063L29.2853 38.5769C28.7425 39.2828 27.9026 39.6964 27.0121 39.6964H20.5537C18.9699 39.6964 17.686 40.9803 17.686 42.564V53.7507C17.686 55.3344 18.9699 56.6183 20.5537 56.6183H26.005C27.5888 56.6183 28.8726 55.3344 28.8726 53.7507V43.0413C28.8726 41.4575 30.1565 40.1737 31.7403 40.1737H45.4722C47.056 40.1737 48.3398 38.8898 48.3398 37.306V31.8544C48.3398 30.2706 47.056 28.9867 45.4722 28.9867Z" fill="#F5F5F5"/>
</svg>
