<svg width="613" height="204" viewBox="0 0 613 204" fill="none" xmlns="http://www.w3.org/2000/svg">
<path d="M96.8961 0H71.0919C67.9868 0 65.0577 1.4425 63.1649 3.90393L40.4491 33.4429C38.5562 35.9044 35.6272 37.3468 32.522 37.3468H10C4.47714 37.3468 0 41.824 0 47.3468V66.3568C0 71.8798 4.47714 76.3568 10 76.3568H29.01C34.5329 76.3568 39.01 71.8798 39.01 66.3568V49.0111C39.01 43.4883 43.4872 39.0111 49.01 39.0111H96.8961C102.419 39.0111 106.896 34.5339 106.896 29.0111V10C106.896 4.47717 102.419 0 96.8961 0ZM480.701 45.0273H461.691C456.169 45.0273 451.691 40.5502 451.691 35.0273V16.0173C451.691 10.4945 456.169 6.01733 461.691 6.01733H480.701C486.224 6.01733 490.701 10.4945 490.701 16.0173V35.0273C490.701 40.5502 486.224 45.0273 480.701 45.0273ZM597.248 160.371H581.444C578.338 160.371 575.409 158.928 573.516 156.467L550.801 126.928C548.908 124.466 545.979 123.024 542.874 123.024H520.352C514.829 123.024 510.352 118.547 510.352 113.024V34.9248C510.352 31.8197 511.794 28.8907 514.255 26.9978L533.265 12.3784C539.842 7.32104 549.362 12.0093 549.362 20.3054V71.2384C549.362 73.1482 551.783 73.9716 552.947 72.4576L571.788 47.9583C573.681 45.4968 576.61 44.0543 579.715 44.0543H602.818C608.341 44.0543 612.818 48.5315 612.818 54.0543V73.0643C612.818 78.5872 608.341 83.0643 602.818 83.0643H551.362C550.257 83.0643 549.362 83.9597 549.362 85.0643V111.359C549.362 116.882 553.839 121.359 559.362 121.359H597.248C602.771 121.359 607.248 125.837 607.248 131.359V150.371C607.248 155.893 602.771 160.371 597.248 160.371ZM461.691 155.752H480.701C486.224 155.752 490.701 151.275 490.701 145.752V67.0475C490.701 58.7513 481.182 54.063 474.605 59.1205L455.595 73.7397C453.134 75.6327 451.691 78.5616 451.691 81.6667V145.752C451.691 151.275 456.169 155.752 461.691 155.752ZM400.083 96.1147V126.05C400.083 129.307 398.497 132.36 395.832 134.232L384.042 142.516C381.18 144.527 377.767 145.606 374.269 145.606H352.197C346.674 145.606 342.197 150.083 342.197 155.606L342.197 193.027C342.197 198.55 346.674 203.027 352.197 203.027H371.207C376.73 203.027 381.207 198.55 381.207 193.027L381.207 164.27C381.207 154.881 388.818 147.27 398.207 147.27H429.094C434.616 147.27 439.094 142.793 439.094 137.27V135.637V108.259V96.9696C439.094 91.4468 434.616 86.9696 429.094 86.9696H409.229C404.258 86.9696 400.229 82.9402 400.229 77.9696V58.1047C400.229 52.5819 395.751 48.1047 390.229 48.1047H352.197C346.674 48.1047 342.197 52.5819 342.197 58.1047V77.1147C342.197 82.6376 346.674 87.1147 352.197 87.1147H391.083C396.054 87.1147 400.083 91.1442 400.083 96.1147ZM294.886 126.05V96.1147C294.886 91.1442 290.857 87.1147 285.886 87.1147H247C241.477 87.1147 237 82.6376 237 77.1147V58.1047C237 52.5819 241.477 48.1047 247 48.1047H285.031C290.554 48.1047 295.031 52.5819 295.031 58.1047V77.9696C295.031 82.9402 299.061 86.9696 304.031 86.9696H323.896C329.419 86.9696 333.896 91.4468 333.896 96.9696V108.259V135.637V137.27C333.896 142.793 329.419 147.27 323.896 147.27H293.01C283.621 147.27 276.01 154.881 276.01 164.27L276.01 193.027C276.01 198.55 271.533 203.027 266.01 203.027H247C241.477 203.027 237 198.55 237 193.027L237 155.606C237 150.083 241.477 145.606 247 145.606H269.072C272.57 145.606 275.983 144.527 278.845 142.516L290.635 134.232C293.3 132.36 294.886 129.307 294.886 126.05ZM213.053 155.752L192.053 155.752C186.53 155.752 182.053 151.275 182.053 145.752V66.4502C182.053 58.264 191.351 53.5459 197.958 58.3799L218.958 73.7457C221.532 75.6289 223.053 78.6268 223.053 81.816V145.752C223.053 151.275 218.576 155.752 213.053 155.752ZM192.053 45.0273H213.053C218.576 45.0273 223.053 40.5502 223.053 35.0273V16.0173C223.053 10.4945 218.576 6.01733 213.053 6.01733H192.053C186.53 6.01733 182.053 10.4945 182.053 16.0173V35.0273C182.053 40.5502 186.53 45.0273 192.053 45.0273ZM152.4 155.752L131.4 155.752C125.878 155.752 121.4 151.275 121.4 145.752V19.7083C121.4 11.5221 130.699 6.80396 137.305 11.6379L158.305 27.0038C160.879 28.887 162.4 31.8849 162.4 35.0741V145.752C162.4 151.275 157.923 155.752 152.4 155.752ZM71.0919 58.2905H96.8961C102.419 58.2905 106.896 62.7677 106.896 68.2905V87.3016C106.896 92.8245 102.419 97.3016 96.8961 97.3016H49.01C43.4872 97.3016 39.01 101.779 39.01 107.302V144.647C39.01 150.17 34.5329 154.647 29.01 154.647H10C4.47714 154.647 0 150.17 0 144.647V105.637C0 100.115 4.47714 95.6373 10 95.6373H32.522C35.6272 95.6373 38.5562 94.1949 40.4491 91.7334L63.1649 62.1945C65.0577 59.733 67.9868 58.2905 71.0919 58.2905Z" fill="#2541B2"/>
</svg>
