<svg width="114" height="114" viewBox="0 0 114 114" fill="none" xmlns="http://www.w3.org/2000/svg">
<path d="M108.3 57C111.448 57 114.03 54.4416 113.715 51.3093C112.786 42.0464 109.598 33.121 104.394 25.3325C98.1305 15.9589 89.2283 8.65306 78.813 4.33887C68.3976 0.0246715 56.9368 -1.10412 45.8799 1.09524C34.8229 3.2946 24.6665 8.72332 16.6949 16.6949C8.72332 24.6665 3.2946 34.8229 1.09524 45.8799C-1.10412 56.9368 0.0246716 68.3976 4.33887 78.813C8.65306 89.2283 15.9589 98.1305 25.3325 104.394C33.121 109.598 42.0464 112.786 51.3093 113.715C54.4416 114.03 57 111.448 57 108.3V108.3C57 105.152 54.4382 102.637 51.3147 102.244C44.3104 101.364 37.5787 98.8658 31.666 94.915C24.1671 89.9044 18.3224 82.7827 14.8711 74.4504C11.4197 66.1181 10.5167 56.9494 12.2762 48.1039C14.0357 39.2583 18.3787 31.1332 24.7559 24.7559C31.1332 18.3787 39.2583 14.0357 48.1039 12.2762C56.9494 10.5167 66.1181 11.4197 74.4504 14.8711C82.7827 18.3224 89.9044 24.1671 94.915 31.666C98.8658 37.5787 101.364 44.3104 102.244 51.3147C102.637 54.4382 105.152 57 108.3 57V57Z" fill="#2541B2"/>
</svg>
