<svg width="26" height="25" viewBox="0 0 26 25" fill="none" xmlns="http://www.w3.org/2000/svg">
<path d="M10.8949 2.1623C11.6097 0.612561 13.8123 0.612562 14.5271 2.16231L16.4691 6.3724C16.7604 7.00401 17.359 7.4389 18.0497 7.5208L22.6538 8.06669C24.3486 8.26764 25.0293 10.3624 23.7763 11.5211L20.3723 14.669C19.8616 15.1413 19.633 15.8449 19.7686 16.5272L20.6721 21.0746C21.0047 22.7486 19.2228 24.0432 17.7336 23.2096L13.6879 20.945C13.081 20.6053 12.3411 20.6053 11.7341 20.945L7.68846 23.2096C6.19923 24.0432 4.41732 22.7486 4.74992 21.0746L5.6535 16.5272C5.78906 15.8449 5.56043 15.1413 5.04975 14.669L1.6458 11.5211C0.392805 10.3624 1.07344 8.26763 2.76823 8.06669L7.37235 7.5208C8.06308 7.4389 8.66165 7.00401 8.95299 6.3724L10.8949 2.1623Z" stroke="#EDB230" stroke-width="2"/>
</svg>
