<svg width="24" height="27" viewBox="0 0 24 27" fill="none" xmlns="http://www.w3.org/2000/svg">
<path d="M2.75041 6.21907C2.90822 9.66751 3.29147 17.6057 3.56193 21.7709C3.77167 25.0009 7.16817 25.9632 8.97129 25.9632C10.7744 25.9632 14.7728 25.9632 16.3416 25.9632C18.3025 25.9632 19.8576 23.9347 19.9929 21.7709C20.1011 20.04 20.3986 10.6818 20.5338 6.21907M2.75041 6.21907H7.40067M2.75041 6.21907H1M20.5338 6.21907H16.0184M20.5338 6.21907H22.2069M7.40067 6.21907C7.40067 5.47194 7.40067 3.78086 7.40067 2.99355C7.40067 2.00941 8.58669 1 11.4382 1C14.2897 1 16.0184 1.78909 16.0184 2.75718C16.0184 3.53165 16.0184 5.3878 16.0184 6.21907M7.40067 6.21907H16.0184" stroke="#0D1117" stroke-width="2" stroke-linecap="round"/>
<line x1="8.69629" y1="11.0005" x2="8.69629" y2="21.2825" stroke="#0D1117" stroke-width="2" stroke-linecap="round"/>
<line x1="14.5283" y1="11.0005" x2="14.5283" y2="21.2825" stroke="#0D1117" stroke-width="2" stroke-linecap="round"/>
</svg>
