<svg width="67" height="67" viewBox="0 0 67 67" fill="none" xmlns="http://www.w3.org/2000/svg">
<circle cx="33.0129" cy="33.0129" r="33.0129" fill="#EDB230"/>
<mask id="mask0_2004_690" style="mask-type:alpha" maskUnits="userSpaceOnUse" x="0" y="0" width="67" height="67">
<circle cx="33.0129" cy="33.0129" r="33.0129" fill="#EDB230"/>
</mask>
<g mask="url(#mask0_2004_690)">
<path d="M33.0131 16.314C36.3092 16.314 39.4703 17.6233 41.801 19.954C44.1317 22.2847 45.441 25.4458 45.441 28.7419C45.441 32.038 44.1317 35.1992 41.801 37.5299C39.4703 39.8605 36.3092 41.1699 33.0131 41.1699C29.717 41.1699 26.5558 39.8605 24.2252 37.5299C21.8945 35.1992 20.5851 32.038 20.5851 28.7419C20.5851 25.4458 21.8945 22.2847 24.2252 19.954C26.5558 17.6233 29.717 16.314 33.0131 16.314ZM33.0131 47.3839C46.746 47.3839 57.869 52.9454 57.869 59.8119V66.0259H8.1571V59.8119C8.1571 52.9454 19.2801 47.3839 33.0131 47.3839Z" fill="white"/>
</g>
</svg>
